# xmcd
#
# Track frame offsets: 
#        150
#        17283
#        37563
#        60675
#        87155
#        110465
#        130675
#        156678
#        175598
#        202940
#
# Disc length: 3029 seconds
#
# Revision: 0
# Processed by: cddbd v1.5.2PL0 Copyright (c) Steve Scherf et al.
# Submitted via: ExactAudioCopy v1.0b3
#
DISCID=6e0bd30a
DTITLE=Various Artist - Ngay Xuan Tham Nhau
DYEAR=1993
DGENRE=
TTITLE0=Ngoc Bich - Xuan hop mat
TTITLE1=Huong Lan, Duy Khanh - Ngay Xuan tham nhau
TTITLE2=Trang Thanh Lan - Mua Xuan dau tien
TTITLE3=Duy Khanh - Mua Xuan la kho
TTITLE4=Thanh Huyen - Cau chuyen dau nam
TTITLE5=Duy Khanh - Mua Xuan do co em
TTITLE6=Huong Lan - Gac nho dem Xuan
TTITLE7=Ngoc Bich - Xuan mien Nam
TTITLE8=Quoc Bien - Thu Xuan tren rung cao
TTITLE9=Trang Thanh Lan - Hoa buom ngay xua
EXTD=
EXTT0=
EXTT1=
EXTT2=
EXTT3=
EXTT4=
EXTT5=
EXTT6=
EXTT7=
EXTT8=
EXTT9=
PLAYORDER=
